<svg viewBox="0 0 48 48" fill="none" xmlns="http://www.w3.org/2000/svg">
  <defs>
    <pattern id="logo-mesh" width="3" height="3" patternUnits="userSpaceOnUse" patternTransform="rotate(45)">
      <path d="M 0,0 L 0,3 M 0,0 L 3,0" stroke="#800f2f" stroke-width="0.5" opacity="0.5" />
    </pattern>
  </defs>
  <rect x="4" y="4" width="40" height="40" rx="8" stroke="#600000" stroke-width="2" opacity="0.9" />
  <g fill="#600000">
    <path d="M 12 12 L 24 36 L 29 36 L 17 12 Z" />
    <path d="M 18 14 H 35 V 17 H 19.5 Z" />
    <path d="M 22.5 23 H 30 V 26 H 24 Z" />
    <path d="M 27 32 H 35 V 35 H 28.5 Z" />
  </g>
  <path d="M 36 12 L 24 36 L 19 36 L 31 12 Z" fill="url(#logo-mesh)" />
  <path d="M 36 12 L 24 36 L 19 36 L 31 12 Z" stroke="#600000" stroke-width="1" opacity="0.8" />
  <path d="M 24 32.5 L 27.5 36 L 24 39.5 L 20.5 36 Z" fill="#D4AF37" />
</svg>
